<svg id="visual" viewBox="0 0 960 300" width="960" height="300" xmlns="http://www.w3.org/2000/svg" xmlns:xlink="http://www.w3.org/1999/xlink" version="1.1"><path d="M0 58L87 58L87 79L175 79L175 76L262 76L262 55L349 55L349 58L436 58L436 49L524 49L524 70L611 70L611 64L698 64L698 55L785 55L785 67L873 67L873 61L960 61L960 61L960 0L960 0L873 0L873 0L785 0L785 0L698 0L698 0L611 0L611 0L524 0L524 0L436 0L436 0L349 0L349 0L262 0L262 0L175 0L175 0L87 0L87 0L0 0Z" fill="#9f8dc3"></path><path d="M0 91L87 91L87 127L175 127L175 97L262 97L262 85L349 85L349 91L436 91L436 91L524 91L524 109L611 109L611 106L698 106L698 106L785 106L785 88L873 88L873 85L960 85L960 82L960 59L960 59L873 59L873 65L785 65L785 53L698 53L698 62L611 62L611 68L524 68L524 47L436 47L436 56L349 56L349 53L262 53L262 74L175 74L175 77L87 77L87 56L0 56Z" fill="#8f7fb6"></path><path d="M0 130L87 130L87 148L175 148L175 163L262 163L262 112L349 112L349 112L436 112L436 142L524 142L524 130L611 130L611 163L698 163L698 151L785 151L785 127L873 127L873 127L960 127L960 127L960 80L960 83L873 83L873 86L785 86L785 104L698 104L698 104L611 104L611 107L524 107L524 89L436 89L436 89L349 89L349 83L262 83L262 95L175 95L175 125L87 125L87 89L0 89Z" fill="#7e71aa"></path><path d="M0 229L87 229L87 208L175 208L175 250L262 250L262 211L349 211L349 175L436 175L436 211L524 211L524 223L611 223L611 214L698 214L698 223L785 223L785 259L873 259L873 220L960 220L960 244L960 125L960 125L873 125L873 125L785 125L785 149L698 149L698 161L611 161L611 128L524 128L524 140L436 140L436 110L349 110L349 110L262 110L262 161L175 161L175 146L87 146L87 128L0 128Z" fill="#6d649e"></path><path d="M0 301L87 301L87 301L175 301L175 301L262 301L262 301L349 301L349 301L436 301L436 301L524 301L524 301L611 301L611 301L698 301L698 301L785 301L785 301L873 301L873 301L960 301L960 301L960 242L960 218L873 218L873 257L785 257L785 221L698 221L698 212L611 212L611 221L524 221L524 209L436 209L436 173L349 173L349 209L262 209L262 248L175 248L175 206L87 206L87 227L0 227Z" fill="#5c5792"></path></svg>