<svg id="visual" viewBox="0 0 960 300" width="960" height="300" xmlns="http://www.w3.org/2000/svg" xmlns:xlink="http://www.w3.org/1999/xlink" version="1.1"><path d="M0 55L87 55L87 67L175 67L175 55L262 55L262 31L349 31L349 67L436 67L436 43L524 43L524 40L611 40L611 64L698 64L698 58L785 58L785 73L873 73L873 70L960 70L960 52L960 0L960 0L873 0L873 0L785 0L785 0L698 0L698 0L611 0L611 0L524 0L524 0L436 0L436 0L349 0L349 0L262 0L262 0L175 0L175 0L87 0L87 0L0 0Z" fill="#5c5792"></path><path d="M0 106L87 106L87 100L175 100L175 97L262 97L262 64L349 64L349 121L436 121L436 97L524 97L524 61L611 61L611 91L698 91L698 97L785 97L785 127L873 127L873 97L960 97L960 73L960 50L960 68L873 68L873 71L785 71L785 56L698 56L698 62L611 62L611 38L524 38L524 41L436 41L436 65L349 65L349 29L262 29L262 53L175 53L175 65L87 65L87 53L0 53Z" fill="#4d477e"></path><path d="M0 142L87 142L87 202L175 202L175 223L262 223L262 160L349 160L349 187L436 187L436 163L524 163L524 184L611 184L611 178L698 178L698 187L785 187L785 202L873 202L873 193L960 193L960 178L960 71L960 95L873 95L873 125L785 125L785 95L698 95L698 89L611 89L611 59L524 59L524 95L436 95L436 119L349 119L349 62L262 62L262 95L175 95L175 98L87 98L87 104L0 104Z" fill="#3e376a"></path><path d="M0 256L87 256L87 274L175 274L175 280L262 280L262 268L349 268L349 262L436 262L436 265L524 265L524 274L611 274L611 280L698 280L698 280L785 280L785 283L873 283L873 256L960 256L960 259L960 176L960 191L873 191L873 200L785 200L785 185L698 185L698 176L611 176L611 182L524 182L524 161L436 161L436 185L349 185L349 158L262 158L262 221L175 221L175 200L87 200L87 140L0 140Z" fill="#2f2857"></path><path d="M0 301L87 301L87 301L175 301L175 301L262 301L262 301L349 301L349 301L436 301L436 301L524 301L524 301L611 301L611 301L698 301L698 301L785 301L785 301L873 301L873 301L960 301L960 301L960 257L960 254L873 254L873 281L785 281L785 278L698 278L698 278L611 278L611 272L524 272L524 263L436 263L436 260L349 260L349 266L262 266L262 278L175 278L175 272L87 272L87 254L0 254Z" fill="#211a44"></path></svg>