<svg id="visual" viewBox="0 0 1920 210" width="1920" height="210" xmlns="http://www.w3.org/2000/svg" xmlns:xlink="http://www.w3.org/1999/xlink" version="1.1"><path d="M0 135L17.8 133C35.7 131 71.3 127 106.8 127.5C142.3 128 177.7 133 213.2 129C248.7 125 284.3 112 320 109C355.7 106 391.3 113 426.8 123C462.3 133 497.7 146 533.2 144C568.7 142 604.3 125 640 116.2C675.7 107.3 711.3 106.7 746.8 100.7C782.3 94.7 817.7 83.3 853.2 90.2C888.7 97 924.3 122 960 126.5C995.7 131 1031.3 115 1066.8 111.8C1102.3 108.7 1137.7 118.3 1173.2 120.3C1208.7 122.3 1244.3 116.7 1280 107.2C1315.7 97.7 1351.3 84.3 1386.8 88.8C1422.3 93.3 1457.7 115.7 1493.2 117.2C1528.7 118.7 1564.3 99.3 1600 93.7C1635.7 88 1671.3 96 1706.8 105.3C1742.3 114.7 1777.7 125.3 1813.2 120.7C1848.7 116 1884.3 96 1902.2 86L1920 76L1920 211L1902.2 211C1884.3 211 1848.7 211 1813.2 211C1777.7 211 1742.3 211 1706.8 211C1671.3 211 1635.7 211 1600 211C1564.3 211 1528.7 211 1493.2 211C1457.7 211 1422.3 211 1386.8 211C1351.3 211 1315.7 211 1280 211C1244.3 211 1208.7 211 1173.2 211C1137.7 211 1102.3 211 1066.8 211C1031.3 211 995.7 211 960 211C924.3 211 888.7 211 853.2 211C817.7 211 782.3 211 746.8 211C711.3 211 675.7 211 640 211C604.3 211 568.7 211 533.2 211C497.7 211 462.3 211 426.8 211C391.3 211 355.7 211 320 211C284.3 211 248.7 211 213.2 211C177.7 211 142.3 211 106.8 211C71.3 211 35.7 211 17.8 211L0 211Z" fill="#9F8DC3" stroke-linecap="round" stroke-linejoin="miter"></path></svg>